<?xml version="1.0" encoding="UTF-8" standalone="no"?>
<!-- Created with Inkscape (http://www.inkscape.org/) -->

<svg
   width="100mm"
   height="100mm"
   viewBox="0 0 100 100"
   version="1.1"
   id="svg1"
   inkscape:version="1.3.2 (091e20e, 2023-11-25)"
   sodipodi:docname="branches.svg"
   xmlns:inkscape="http://www.inkscape.org/namespaces/inkscape"
   xmlns:sodipodi="http://sodipodi.sourceforge.net/DTD/sodipodi-0.dtd"
   xmlns="http://www.w3.org/2000/svg"
   xmlns:svg="http://www.w3.org/2000/svg">
  <sodipodi:namedview
     id="namedview1"
     pagecolor="#ffffff"
     bordercolor="#000000"
     borderopacity="0.25"
     inkscape:showpageshadow="2"
     inkscape:pageopacity="0.0"
     inkscape:pagecheckerboard="0"
     inkscape:deskcolor="#d1d1d1"
     inkscape:document-units="mm"
     showgrid="true"
     showguides="true"
     inkscape:zoom="0.38969445"
     inkscape:cx="162.94818"
     inkscape:cy="629.98075"
     inkscape:window-width="1376"
     inkscape:window-height="740"
     inkscape:window-x="0"
     inkscape:window-y="0"
     inkscape:window-maximized="0"
     inkscape:current-layer="layer1">
    <inkscape:grid
       id="grid1"
       units="mm"
       originx="0"
       originy="0"
       spacingx="99.999999"
       spacingy="99.999999"
       empcolor="#0099e5"
       empopacity="0.30196078"
       color="#0099e5"
       opacity="0.14901961"
       empspacing="5"
       dotted="false"
       gridanglex="30"
       gridanglez="30"
       visible="true"
       snapvisiblegridlinesonly="true" />
  </sodipodi:namedview>
  <defs
     id="defs1" />
  <g
     inkscape:label="Layer 1"
     inkscape:groupmode="layer"
     id="layer1">
    <path
       id="rect1"
       style="fill:#000000;fill-opacity:1;stroke:none;stroke-width:20;stroke-linecap:butt;stroke-linejoin:miter;stroke-dasharray:none;stroke-opacity:1"
       inkscape:label="rect1"
       d="m 279.99996,200.0002 h 19.99982 V 100.0001 h -19.99982 z" />
    <path
       id="path2"
       style="fill:#000000;fill-opacity:1;stroke:none;stroke-width:20;stroke-linecap:butt;stroke-linejoin:miter;stroke-dasharray:none;stroke-opacity:1"
       d="m -351.32876,0 c -22.15998,0 -40.00015,17.840165 -40.00015,40.000142 V 260.00015 c 0,22.15998 17.84017,39.99963 40.00015,39.99963 h 220 c 22.15998,0 39.999634,-17.83965 39.999634,-39.99963 V 40.000142 C -91.329126,17.840165 -109.16878,0 -131.32876,0 Z m 14.66628,19.999813 h 190.66692 c 19.20531,0 34.66661,15.461303 34.66661,34.666618 V 245.33335 c 0,19.20531 -15.4613,34.66661 -34.66661,34.66661 h -190.66692 c -19.20531,0 -34.66661,-15.4613 -34.66661,-34.66661 V 54.666431 c 0,-19.205315 15.4613,-34.666618 34.66661,-34.666618 z"
       inkscape:label="rect1" />
    <path
       id="path10"
       style="fill:#000000;fill-opacity:1;stroke:none;stroke-width:20;stroke-linecap:butt;stroke-linejoin:miter;stroke-dasharray:none;stroke-opacity:1"
       inkscape:label="rect1"
       d="m 100.0001,279.99996 v 19.99982 h 160.00005 c 22.15992,0 39.99963,-17.83971 39.99963,-39.99963 V 200.0002 h -19.99982 v 45.33315 c 0,19.20525 -15.46136,34.66661 -34.66661,34.66661 z" />
    <path
       id="path5"
       style="fill:#000000;fill-opacity:1;stroke:none;stroke-width:20;stroke-linecap:butt;stroke-linejoin:miter;stroke-dasharray:none;stroke-opacity:1"
       inkscape:label="rect1"
       d="m 100.0001,0 v 19.999813 h 145.33325 c 19.20527,0 34.66661,15.461341 34.66661,34.666618 V 100.0001 h 19.99982 V 40.000142 C 299.99978,17.840211 282.16009,0 260.00015,0 Z" />
  </g>
  <g
     inkscape:groupmode="layer"
     id="layer2"
     inkscape:label="top">
    <path
       id="path9"
       style="fill:#000000;fill-opacity:1;stroke:none;stroke-width:20;stroke-linecap:butt;stroke-linejoin:miter;stroke-dasharray:none;stroke-opacity:1"
       inkscape:label="rect1"
       d="M 40.000142,0 C 17.840211,0 0,17.840211 0,40.000142 V 100.0001 H 19.999813 V 54.666431 c 0,-19.205277 15.461341,-34.666618 34.666618,-34.666618 H 100.0001 V 0 Z" />
  </g>
  <g
     inkscape:groupmode="layer"
     id="layer3"
     inkscape:label="mid">
    <path
       id="path6"
       style="fill:#000000;fill-opacity:1;stroke:none;stroke-width:20;stroke-linecap:butt;stroke-linejoin:miter;stroke-dasharray:none;stroke-opacity:1"
       inkscape:label="rect1"
       d="M 0,100.0001 V 200.0002 H 19.999813 V 100.0001 Z" />
  </g>
  <g
     inkscape:groupmode="layer"
     id="layer4"
     inkscape:label="bottom">
    <path
       id="path7"
       style="fill:#000000;fill-opacity:1;stroke:none;stroke-width:20;stroke-linecap:butt;stroke-linejoin:miter;stroke-dasharray:none;stroke-opacity:1"
       inkscape:label="rect1"
       d="M 100.0001,279.99996 H 54.666431 c -19.205258,0 -34.666618,-15.46136 -34.666618,-34.66661 V 200.0002 H 0 v 59.99995 c 0,22.15992 17.840234,39.99963 40.000142,39.99963 H 100.0001 Z" />
  </g>
</svg>
